<?xml version="1.0" standalone="no"?>
<!DOCTYPE svg PUBLIC "-//W3C//DTD SVG 20010904//EN"
 "http://www.w3.org/TR/2001/REC-SVG-20010904/DTD/svg10.dtd">
<svg version="1.0" xmlns="http://www.w3.org/2000/svg"
 width="512.000000pt" height="512.000000pt" viewBox="0 0 512.000000 512.000000"
 preserveAspectRatio="xMidYMid meet">

<g transform="translate(0.000000,512.000000) scale(0.100000,-0.100000)"
fill="#fff" stroke="none">
<path d="M1530 4808 l0 -313 1027 2 1028 3 3 310 2 310 -1030 0 -1030 0 0
-312z"/>
<path d="M1512 4189 c-290 -38 -535 -274 -581 -559 -15 -89 -15 -2051 0 -2140
33 -203 178 -400 363 -490 162 -80 84 -75 1256 -75 845 0 1056 3 1104 14 129
29 251 97 344 193 88 90 142 185 173 306 18 72 19 120 19 1122 0 1002 -1 1050
-19 1122 -31 121 -85 216 -173 306 -89 91 -207 159 -338 194 -54 14 -2045 21
-2148 7z m737 -680 c90 -14 176 -44 246 -86 60 -35 60 -35 90 -18 214 125 427
147 632 65 337 -135 510 -507 396 -852 -47 -143 -83 -185 -590 -691 l-468
-467 -480 482 c-513 515 -532 538 -576 678 -59 187 -37 396 58 560 21 36 72
99 114 141 150 152 367 223 578 188z"/>
<path d="M2055 3206 c-191 -47 -314 -235 -284 -431 19 -122 34 -141 424 -533
l360 -363 362 363 c333 334 364 369 395 433 30 63 33 79 33 160 0 80 -4 97
-32 157 -40 85 -106 151 -191 191 -60 28 -77 32 -157 32 -126 0 -191 -32 -318
-154 l-93 -90 -80 80 c-95 96 -150 133 -229 154 -69 18 -121 18 -190 1z"/>
<path d="M1530 313 l0 -313 1030 0 1030 0 -2 310 -3 310 -1028 3 -1027 2 0
-312z"/>
</g>
</svg>
